<svg width="153" height="22" viewBox="0 0 153 22" fill="none" xmlns="http://www.w3.org/2000/svg">
<g clip-path="url(#clip0_23_2)">
<path d="M0.699951 20.9998V1.19984H6.13595C7.54395 1.19984 8.85195 1.45184 10.06 1.95584C11.268 2.45984 12.324 3.16384 13.228 4.06784C14.14 4.97184 14.848 6.02384 15.352 7.22384C15.864 8.42384 16.12 9.71985 16.12 11.1118C16.12 12.5118 15.868 13.8118 15.364 15.0118C14.86 16.2038 14.152 17.2518 13.24 18.1558C12.336 19.0518 11.276 19.7518 10.06 20.2558C8.85195 20.7518 7.54395 20.9998 6.13595 20.9998H0.699951ZM4.58795 17.5198H5.70395C6.59995 17.5198 7.42795 17.3598 8.18795 17.0398C8.94795 16.7198 9.60795 16.2718 10.168 15.6958C10.728 15.1198 11.164 14.4438 11.476 13.6678C11.788 12.8838 11.944 12.0278 11.944 11.0998C11.944 10.1798 11.788 9.33184 11.476 8.55584C11.164 7.77184 10.728 7.09184 10.168 6.51584C9.60795 5.93184 8.94795 5.47984 8.18795 5.15984C7.42795 4.83984 6.59995 4.67984 5.70395 4.67984H4.58795V17.5198ZM25.0359 20.9998V1.19984H36.0518V4.60784H28.9239V9.37184H35.7639V12.7798H28.9239V17.5918H36.0518V20.9998H25.0359ZM50.9693 21.3838C50.0493 21.3838 49.2014 21.2798 48.4254 21.0718C47.6494 20.8718 46.9533 20.6198 46.3373 20.3158C45.7293 20.0038 45.2054 19.6838 44.7654 19.3558C44.3254 19.0278 43.9774 18.7398 43.7214 18.4918L45.7134 15.2758C45.9774 15.5078 46.2934 15.7678 46.6614 16.0558C47.0294 16.3438 47.4414 16.6198 47.8974 16.8838C48.3534 17.1398 48.8454 17.3558 49.3734 17.5318C49.9094 17.6998 50.4774 17.7838 51.0774 17.7838C51.6374 17.7838 52.1293 17.6958 52.5533 17.5198C52.9853 17.3438 53.3253 17.0838 53.5733 16.7398C53.8213 16.3878 53.9454 15.9518 53.9454 15.4318C53.9454 14.9598 53.8454 14.5598 53.6454 14.2318C53.4454 13.8958 53.1494 13.5958 52.7574 13.3318C52.3734 13.0598 51.8973 12.7958 51.3293 12.5398C50.7693 12.2758 50.1294 11.9878 49.4094 11.6758C48.8734 11.4358 48.3614 11.1638 47.8734 10.8598C47.3934 10.5478 46.9654 10.1878 46.5894 9.77984C46.2134 9.37184 45.9134 8.91184 45.6894 8.39984C45.4734 7.87984 45.3653 7.29984 45.3653 6.65984C45.3653 5.89984 45.5174 5.17184 45.8214 4.47584C46.1254 3.77984 46.5574 3.15984 47.1174 2.61584C47.6854 2.07184 48.3574 1.63984 49.1334 1.31984C49.9174 0.999844 50.7894 0.839844 51.7494 0.839844C52.4694 0.839844 53.1894 0.935844 53.9094 1.12784C54.6294 1.31984 55.3014 1.57184 55.9254 1.88384C56.5494 2.19584 57.0773 2.53584 57.5093 2.90384L55.8894 5.95184C55.5454 5.65584 55.1534 5.39184 54.7134 5.15984C54.2814 4.91984 53.8174 4.72784 53.3214 4.58384C52.8334 4.43984 52.3374 4.36784 51.8334 4.36784C51.2654 4.36784 50.7814 4.46785 50.3814 4.66785C49.9894 4.86785 49.6853 5.13584 49.4693 5.47184C49.2613 5.79984 49.1573 6.16784 49.1573 6.57584C49.1573 6.91184 49.2254 7.19984 49.3614 7.43984C49.5054 7.67184 49.7053 7.87584 49.9613 8.05184C50.2173 8.21984 50.5253 8.38384 50.8853 8.54384C51.2453 8.69584 51.6413 8.85984 52.0733 9.03584C53.0013 9.42784 53.8413 9.81584 54.5933 10.1998C55.3453 10.5838 55.9893 11.0118 56.5253 11.4838C57.0613 11.9478 57.4694 12.4918 57.7494 13.1158C58.0374 13.7398 58.1814 14.4838 58.1814 15.3478C58.1814 16.6118 57.8774 17.6958 57.2694 18.5998C56.6694 19.5038 55.8294 20.1958 54.7494 20.6758C53.6694 21.1478 52.4093 21.3838 50.9693 21.3838ZM67.1688 20.9998V1.19984H71.0568V20.9998H67.1688ZM89.7534 21.3838C88.3934 21.3838 87.1254 21.1238 85.9494 20.6038C84.7734 20.0838 83.7454 19.3598 82.8654 18.4318C81.9854 17.4958 81.2974 16.4038 80.8014 15.1558C80.3054 13.9078 80.0574 12.5558 80.0574 11.0998C80.0574 9.70784 80.2894 8.39584 80.7534 7.16384C81.2174 5.92384 81.8854 4.83184 82.7574 3.88784C83.6294 2.93584 84.6814 2.19184 85.9134 1.65584C87.1454 1.11184 88.5254 0.839844 90.0534 0.839844C90.9174 0.839844 91.7854 0.935844 92.6574 1.12784C93.5374 1.31984 94.3814 1.60384 95.1894 1.97984C95.9974 2.34784 96.7254 2.79984 97.3734 3.33584L95.5494 6.34784C94.8534 5.69984 94.0094 5.19984 93.0174 4.84784C92.0334 4.48784 91.0614 4.30784 90.1014 4.30784C89.1574 4.30784 88.3214 4.47584 87.5934 4.81184C86.8734 5.13984 86.2654 5.60384 85.7694 6.20384C85.2734 6.80384 84.8974 7.50784 84.6414 8.31584C84.3854 9.11584 84.2574 9.98784 84.2574 10.9318C84.2574 11.9638 84.4014 12.8998 84.6894 13.7398C84.9774 14.5798 85.3774 15.3038 85.8894 15.9118C86.4094 16.5198 87.0134 16.9878 87.7014 17.3158C88.3974 17.6438 89.1454 17.8078 89.9454 17.8078C90.5854 17.8078 91.2014 17.7038 91.7934 17.4958C92.3934 17.2798 92.9254 16.9798 93.3894 16.5958C93.8534 16.2118 94.2214 15.7598 94.4934 15.2398C94.7654 14.7198 94.9014 14.1518 94.9014 13.5358V13.2358H89.7054V10.2238H98.8614V13.2238C98.8614 14.4318 98.6094 15.5358 98.1054 16.5358C97.6094 17.5278 96.9294 18.3878 96.0654 19.1158C95.2014 19.8358 94.2254 20.3958 93.1374 20.7958C92.0494 21.1878 90.9214 21.3838 89.7534 21.3838ZM107.778 20.9998V1.19984H111.666L120.198 14.5198V1.19984H124.086V20.9998H120.198L111.666 7.67984V20.9998H107.778ZM143.025 21.3838C141.641 21.3838 140.345 21.1198 139.137 20.5918C137.929 20.0638 136.869 19.3318 135.957 18.3958C135.045 17.4518 134.329 16.3598 133.809 15.1198C133.297 13.8718 133.041 12.5358 133.041 11.1118C133.041 9.68784 133.297 8.35584 133.809 7.11584C134.329 5.86784 135.045 4.77584 135.957 3.83984C136.869 2.89584 137.929 2.15984 139.137 1.63184C140.345 1.10384 141.641 0.839844 143.025 0.839844C144.409 0.839844 145.705 1.10384 146.913 1.63184C148.121 2.15984 149.181 2.89584 150.093 3.83984C151.005 4.77584 151.717 5.86784 152.229 7.11584C152.749 8.35584 153.009 9.68784 153.009 11.1118C153.009 12.5358 152.749 13.8718 152.229 15.1198C151.717 16.3598 151.005 17.4518 150.093 18.3958C149.181 19.3318 148.121 20.0638 146.913 20.5918C145.705 21.1198 144.409 21.3838 143.025 21.3838ZM143.013 17.6398C143.861 17.6398 144.637 17.4798 145.341 17.1598C146.045 16.8398 146.657 16.3878 147.177 15.8038C147.697 15.2198 148.101 14.5318 148.389 13.7398C148.677 12.9398 148.821 12.0638 148.821 11.1118C148.821 10.1598 148.677 9.28784 148.389 8.49584C148.101 7.69584 147.697 7.00384 147.177 6.41984C146.657 5.83584 146.045 5.38384 145.341 5.06384C144.637 4.74384 143.861 4.58384 143.013 4.58384C142.181 4.58384 141.409 4.74384 140.697 5.06384C139.993 5.38384 139.381 5.83584 138.861 6.41984C138.341 7.00384 137.937 7.69584 137.649 8.49584C137.369 9.28784 137.229 10.1598 137.229 11.1118C137.229 12.0638 137.369 12.9398 137.649 13.7398C137.937 14.5318 138.341 15.2198 138.861 15.8038C139.381 16.3878 139.993 16.8398 140.697 17.1598C141.409 17.4798 142.181 17.6398 143.013 17.6398Z" fill="white"/>
</g>
<defs>
<clipPath id="clip0_23_2">
<rect width="153" height="22" fill="white"/>
</clipPath>
</defs>
</svg>
